<svg width="51" height="51" viewBox="0 0 51 51" fill="none" xmlns="http://www.w3.org/2000/svg">
<path d="M18.6267 39.5371V21.2317H12.5686V39.5371H18.6267Z" fill="white"/>
<path d="M15.5867 17.798C16.5612 17.798 17.4957 17.4109 18.1848 16.7219C18.8738 16.0328 19.2609 15.0983 19.2609 14.1238C19.2609 12.0899 17.6206 10.4277 15.5867 10.4277C14.6064 10.4277 13.6663 10.8171 12.9732 11.5103C12.28 12.2034 11.8906 13.1436 11.8906 14.1238C11.8906 16.1577 13.5528 17.798 15.5867 17.798Z" fill="white"/>
<path d="M41 39.5371V27.9458C41 26.0549 40.2488 24.2414 38.9117 22.9044C37.5746 21.5673 35.7612 20.8161 33.8703 20.8161C32.0113 20.8161 29.8461 21.9534 28.7964 23.6593V21.2317H22.6945V39.5371H28.7964V28.755C28.7964 27.071 30.1523 25.6932 31.8363 25.6932C32.6484 25.6932 33.4272 26.0158 34.0014 26.59C34.5756 27.1642 34.8982 27.943 34.8982 28.755V39.5371H41Z" fill="white"/>
<rect x="2.5" y="2.5" width="46" height="46" rx="11.5" stroke="white" stroke-width="5"/>
</svg>
