<svg width="51" height="41" viewBox="0 0 51 41" fill="none" xmlns="http://www.w3.org/2000/svg">
<path d="M5.07527 40.6021C3.67957 40.6021 2.48519 40.1056 1.49213 39.1126C0.499068 38.1195 0.00169176 36.9243 0 35.5269V5.07527C0 3.67957 0.497377 2.48519 1.49213 1.49213C2.48688 0.499068 3.68126 0.00169176 5.07527 0H45.6774C47.0731 0 48.2683 0.497376 49.2631 1.49213C50.2579 2.48688 50.7544 3.68126 50.7527 5.07527V35.5269C50.7527 36.9226 50.2562 38.1178 49.2631 39.1126C48.27 40.1073 47.0748 40.6038 45.6774 40.6021H5.07527ZM45.6774 10.1505L26.7086 22.014C26.4971 22.1409 26.2755 22.2364 26.0437 22.3007C25.812 22.365 25.5895 22.3963 25.3763 22.3946C25.1632 22.3929 24.9416 22.3616 24.7115 22.3007C24.4814 22.2398 24.2589 22.1442 24.0441 22.014L5.07527 10.1505V35.5269H45.6774V10.1505ZM25.3763 17.7634L45.6774 5.07527H5.07527L25.3763 17.7634ZM5.07527 10.7849V7.04194V7.10538V7.07492V10.7849Z" fill="white"/>
</svg>
