<svg width="28" height="27" viewBox="0 0 28 27" fill="none" xmlns="http://www.w3.org/2000/svg">
<mask id="path-1-outside-1_127_117" maskUnits="userSpaceOnUse" x="0" y="-1" width="29" height="29" fill="black">
<rect fill="white" y="-1" width="29" height="29"/>
<path d="M18.8386 18.083L19.4465 17.4708L18.0346 16.0329L17.4294 16.6451L18.8386 18.083ZM21.485 17.214L24.0327 18.6181L24.986 16.837L22.4396 15.4342L21.485 17.214ZM24.522 21.4074L22.6289 23.3169L24.0381 24.7534L25.9312 22.8452L24.522 21.4074ZM21.4743 23.9304C19.5412 24.1142 14.5416 23.9507 9.12613 18.4938L7.7156 19.9303C13.6244 25.8859 19.2492 26.1778 21.661 25.9494L21.4743 23.9304ZM9.12613 18.4938C3.96529 13.2909 3.10937 8.9165 3.00271 7.0178L1.00556 7.13267C1.13888 9.52192 2.19879 14.3707 7.7156 19.9303L9.12613 18.4938ZM10.9593 10.1422L11.3419 9.75571L9.93406 8.31918L9.55143 8.70433L10.9593 10.1422ZM11.6459 4.84342L9.96606 2.56768L8.36487 3.78393L10.0447 6.05831L11.6459 4.84342ZM4.31192 2.07172L2.21878 4.17989L3.62932 5.61776L5.72112 3.5096L4.31192 2.07172ZM10.2554 9.42327C9.54876 8.70433 9.54876 8.70433 9.54876 8.70703H9.5461L9.5421 8.71244C9.47874 8.77719 9.42201 8.84827 9.37278 8.92461C9.30079 9.03272 9.22213 9.17461 9.15547 9.35435C8.99318 9.81831 8.95275 10.3171 9.03814 10.8017C9.21679 11.9706 10.0114 13.5153 12.0459 15.5667L13.4564 14.1288C11.5512 12.2098 11.0979 11.0422 11.014 10.4909C10.974 10.2287 11.0153 10.099 11.0273 10.0692C11.0353 10.0512 11.0353 10.0485 11.0273 10.0611C11.0154 10.0798 11.002 10.0974 10.9873 10.1138L10.974 10.1273L10.9606 10.1395L10.2554 9.42327ZM12.0459 15.5667C14.0817 17.6181 15.6135 18.4181 16.7681 18.5965C17.3587 18.6884 17.8347 18.6154 18.1959 18.4789C18.3983 18.4039 18.5874 18.2962 18.7559 18.16L18.8226 18.0992L18.8319 18.0911L18.8359 18.087L18.8372 18.0843C18.8372 18.0843 18.8386 18.083 18.1333 17.364C17.4267 16.6451 17.4307 16.6437 17.4307 16.6437L17.4334 16.641L17.436 16.6383L17.444 16.6316L17.4574 16.618L17.508 16.5775C17.5205 16.5694 17.5173 16.5703 17.4987 16.5802C17.4654 16.5924 17.3347 16.6343 17.0721 16.5937C16.5201 16.5072 15.3602 16.0478 13.4564 14.1288L12.0459 15.5667ZM9.96606 2.56633C8.60618 0.728446 5.93443 0.436547 4.31192 2.07172L5.72112 3.5096C6.43039 2.79472 7.68894 2.86904 8.36487 3.78393L9.96606 2.56633ZM3.00404 7.01915C2.97738 6.55157 3.18936 6.06237 3.62932 5.61911L2.21745 4.18124C1.50152 4.90288 0.93757 5.92453 1.00556 7.13267L3.00404 7.01915ZM22.6289 23.3169C22.2636 23.6872 21.8689 23.8953 21.4756 23.9318L21.661 25.9494C22.6409 25.8561 23.4421 25.3561 24.0394 24.7547L22.6289 23.3169ZM11.3419 9.75571C12.6551 8.4327 12.7525 6.34211 11.6472 4.84477L10.046 6.05967C10.5833 6.78806 10.5033 7.74349 9.93273 8.32054L11.3419 9.75571ZM24.0341 18.6195C25.1233 19.2195 25.2926 20.633 24.5234 21.4087L25.9339 22.8452C27.7204 21.0438 27.1698 18.0397 24.9873 16.8383L24.0341 18.6195ZM19.4465 17.4721C19.9585 16.9559 20.7824 16.8289 21.4863 17.2154L22.4409 15.4356C20.9957 14.6383 19.2039 14.8585 18.036 16.0343L19.4465 17.4721Z"/>
</mask>
<path d="M18.8386 18.083L19.4465 17.4708L18.0346 16.0329L17.4294 16.6451L18.8386 18.083ZM21.485 17.214L24.0327 18.6181L24.986 16.837L22.4396 15.4342L21.485 17.214ZM24.522 21.4074L22.6289 23.3169L24.0381 24.7534L25.9312 22.8452L24.522 21.4074ZM21.4743 23.9304C19.5412 24.1142 14.5416 23.9507 9.12613 18.4938L7.7156 19.9303C13.6244 25.8859 19.2492 26.1778 21.661 25.9494L21.4743 23.9304ZM9.12613 18.4938C3.96529 13.2909 3.10937 8.9165 3.00271 7.0178L1.00556 7.13267C1.13888 9.52192 2.19879 14.3707 7.7156 19.9303L9.12613 18.4938ZM10.9593 10.1422L11.3419 9.75571L9.93406 8.31918L9.55143 8.70433L10.9593 10.1422ZM11.6459 4.84342L9.96606 2.56768L8.36487 3.78393L10.0447 6.05831L11.6459 4.84342ZM4.31192 2.07172L2.21878 4.17989L3.62932 5.61776L5.72112 3.5096L4.31192 2.07172ZM10.2554 9.42327C9.54876 8.70433 9.54876 8.70433 9.54876 8.70703H9.5461L9.5421 8.71244C9.47874 8.77719 9.42201 8.84827 9.37278 8.92461C9.30079 9.03272 9.22213 9.17461 9.15547 9.35435C8.99318 9.81831 8.95275 10.3171 9.03814 10.8017C9.21679 11.9706 10.0114 13.5153 12.0459 15.5667L13.4564 14.1288C11.5512 12.2098 11.0979 11.0422 11.014 10.4909C10.974 10.2287 11.0153 10.099 11.0273 10.0692C11.0353 10.0512 11.0353 10.0485 11.0273 10.0611C11.0154 10.0798 11.002 10.0974 10.9873 10.1138L10.974 10.1273L10.9606 10.1395L10.2554 9.42327ZM12.0459 15.5667C14.0817 17.6181 15.6135 18.4181 16.7681 18.5965C17.3587 18.6884 17.8347 18.6154 18.1959 18.4789C18.3983 18.4039 18.5874 18.2962 18.7559 18.16L18.8226 18.0992L18.8319 18.0911L18.8359 18.087L18.8372 18.0843C18.8372 18.0843 18.8386 18.083 18.1333 17.364C17.4267 16.6451 17.4307 16.6437 17.4307 16.6437L17.4334 16.641L17.436 16.6383L17.444 16.6316L17.4574 16.618L17.508 16.5775C17.5205 16.5694 17.5173 16.5703 17.4987 16.5802C17.4654 16.5924 17.3347 16.6343 17.0721 16.5937C16.5201 16.5072 15.3602 16.0478 13.4564 14.1288L12.0459 15.5667ZM9.96606 2.56633C8.60618 0.728446 5.93443 0.436547 4.31192 2.07172L5.72112 3.5096C6.43039 2.79472 7.68894 2.86904 8.36487 3.78393L9.96606 2.56633ZM3.00404 7.01915C2.97738 6.55157 3.18936 6.06237 3.62932 5.61911L2.21745 4.18124C1.50152 4.90288 0.93757 5.92453 1.00556 7.13267L3.00404 7.01915ZM22.6289 23.3169C22.2636 23.6872 21.8689 23.8953 21.4756 23.9318L21.661 25.9494C22.6409 25.8561 23.4421 25.3561 24.0394 24.7547L22.6289 23.3169ZM11.3419 9.75571C12.6551 8.4327 12.7525 6.34211 11.6472 4.84477L10.046 6.05967C10.5833 6.78806 10.5033 7.74349 9.93273 8.32054L11.3419 9.75571ZM24.0341 18.6195C25.1233 19.2195 25.2926 20.633 24.5234 21.4087L25.9339 22.8452C27.7204 21.0438 27.1698 18.0397 24.9873 16.8383L24.0341 18.6195ZM19.4465 17.4721C19.9585 16.9559 20.7824 16.8289 21.4863 17.2154L22.4409 15.4356C20.9957 14.6383 19.2039 14.8585 18.036 16.0343L19.4465 17.4721Z" fill="white"/>
<path d="M9.12613 18.4938L9.4834 18.8436L8.76937 18.1435L9.12613 18.4938ZM5.72112 3.5096L5.36452 3.86008L6.07822 3.15963L5.72112 3.5096ZM18.4906 17.0142L17.7866 16.2953L17.0721 16.9949L17.776 17.7138L18.4906 17.0142ZM18.3843 17.102L19.0896 17.8209L19.8034 17.1206L19.0982 16.4017L18.3843 17.102ZM21.5227 16.0875L21.0455 16.9795L21.9272 17.4513L22.4044 16.5594L21.5227 16.0875ZM24.0693 17.4914L23.592 18.3819L24.4734 18.8543L24.9507 17.9637L24.0693 17.4914ZM24.8717 22.4764L25.577 23.1954L26.2908 22.4951L25.5856 21.7762L24.8717 22.4764ZM23.6917 23.6836L22.9851 22.9661L22.2726 23.6677L22.9792 24.3853L23.6917 23.6836ZM21.0698 24.9859L21.1631 25.9954L22.1588 25.9033L22.0655 24.8939L21.0698 24.9859ZM8.77946 19.5625L9.4834 18.8436L8.76887 18.144L8.06494 18.8629L8.77946 19.5625ZM1.97576 6.57671L0.97719 6.63347L1.03394 7.63186L2.03251 7.5751L1.97576 6.57671ZM10.2787 9.38725L10.9853 10.1062L11.6985 9.40523L10.9919 8.68629L10.2787 9.38725ZM11.1468 5.84855L11.9467 5.24178L11.3424 4.44506L10.5425 5.05183L11.1468 5.84855ZM8.86385 2.77753L8.06259 3.38565L8.66715 4.18221L9.46841 3.57409L8.86385 2.77753ZM4.65792 3.14114L5.36452 3.86008L6.07772 3.15912L5.37112 2.44018L4.65792 3.14114ZM3.27832 4.54868L2.57438 3.8311L1.86052 4.53138L2.56445 5.24897L3.27832 4.54868ZM13.1067 15.1979L13.812 14.4789L13.0981 13.7787L12.3929 14.4976L13.1067 15.1979ZM8.76937 18.1435L7.35884 19.58L8.07237 20.2806L9.4829 18.8441L8.76937 18.1435ZM6.07822 3.15963L4.66902 1.72175L3.95482 2.4217L5.36403 3.85957L6.07822 3.15963ZM12.4028 15.9168L13.8133 14.4789L13.0995 13.7787L11.6889 15.2165L12.4028 15.9168ZM18.1333 17.364L18.8472 16.6637L18.8465 16.6631L18.1333 17.364ZM17.4294 16.6451L16.7183 15.942L16.0261 16.642L16.7152 17.345L17.4294 16.6451ZM19.4465 17.4708L20.1561 18.1754L20.8519 17.4747L20.16 16.7701L19.4465 17.4708ZM21.4863 17.2154L21.005 18.0919L21.8902 18.578L22.3676 17.688L21.4863 17.2154ZM24.0327 18.6181L23.5501 19.4939L24.4367 19.9825L24.9144 19.09L24.0327 18.6181ZM25.9339 22.8452L25.2204 23.5459L25.9303 24.2689L26.6439 23.5494L25.9339 22.8452ZM22.6289 23.3169L21.9187 22.6128L21.917 22.6146L22.6289 23.3169ZM21.661 25.9494L21.7552 26.9449L21.7557 26.9449L21.661 25.9494ZM9.12613 18.4938L8.41617 19.198L8.41634 19.1982L9.12613 18.4938ZM5.72112 3.5096L6.43098 4.21395L6.43101 4.21391L5.72112 3.5096ZM2.21745 4.18124L2.93098 3.48061L2.22112 2.75768L1.50754 3.47695L2.21745 4.18124ZM18.8386 18.083L18.1244 18.7829L18.8339 19.5068L19.5481 18.7876L18.8386 18.083ZM18.0346 16.0329L18.7482 15.3323L18.0371 14.6081L17.3235 15.3298L18.0346 16.0329ZM21.485 17.214L20.6037 16.7414L20.1364 17.6126L21.0023 18.0898L21.485 17.214ZM24.986 16.837L25.8677 17.3088L26.3338 16.4378L25.4685 15.9611L24.986 16.837ZM22.4396 15.4342L22.9221 14.5583L22.0363 14.0704L21.5583 14.9616L22.4396 15.4342ZM24.522 21.4074L25.2362 20.7074L24.5261 19.9829L23.8119 20.7033L24.522 21.4074ZM24.0381 24.7534L23.3242 25.4537L24.034 26.1773L24.748 25.4577L24.0381 24.7534ZM25.9312 22.8452L26.6411 23.5496L27.3356 22.8495L26.6454 22.1453L25.9312 22.8452ZM21.4743 23.9304L22.4701 23.8383L22.3778 22.84L21.3797 22.9349L21.4743 23.9304ZM7.7156 19.9303L8.42549 19.226L8.42543 19.2259L7.7156 19.9303ZM3.00271 7.0178L4.00114 6.96171L3.94498 5.96195L2.94529 6.01945L3.00271 7.0178ZM10.9593 10.1422L10.2448 10.8418L10.9554 11.5676L11.6699 10.8457L10.9593 10.1422ZM9.93406 8.31918L10.6483 7.61924L9.9389 6.89544L9.22464 7.6144L9.93406 8.31918ZM9.55143 8.70433L8.84201 7.99954L8.1469 8.69923L8.83691 9.40394L9.55143 8.70433ZM11.6459 4.84342L12.2503 5.64006L13.0365 5.04354L12.4504 4.24954L11.6459 4.84342ZM9.96606 2.56768L10.7706 1.9738L10.1685 1.15812L9.36118 1.77137L9.96606 2.56768ZM10.0447 6.05831L9.24033 6.65243L9.84217 7.46727L10.6492 6.85496L10.0447 6.05831ZM4.31192 2.07172L5.02155 2.7763L5.02177 2.77608L4.31192 2.07172ZM2.21878 4.17989L1.50915 3.47531L0.813801 4.17566L1.50492 4.88017L2.21878 4.17989ZM3.62932 5.61776L2.91546 6.31805L3.62526 7.04161L4.33917 6.32211L3.62932 5.61776ZM10.2554 9.42327L9.54216 10.1242L9.54282 10.1249L10.2554 9.42327ZM9.54876 8.70703V9.70703H10.5488V8.70703H9.54876ZM9.5461 8.70703V7.70703H9.04215L8.74233 8.11209L9.5461 8.70703ZM9.5421 8.71244L10.2569 9.41181L10.3049 9.36266L10.3459 9.30738L9.5421 8.71244ZM9.37278 8.92461L10.2051 9.47888L10.2092 9.47278L10.2132 9.46662L9.37278 8.92461ZM9.15547 9.35435L8.21787 9.00661L8.21463 9.01537L8.21154 9.02419L9.15547 9.35435ZM9.03814 10.8017L10.0267 10.6506L10.0249 10.6394L10.023 10.6281L9.03814 10.8017ZM12.0459 15.5667L11.3358 16.2708L11.3361 16.2711L12.0459 15.5667ZM13.4564 14.1288L14.1663 13.4245L14.1661 13.4242L13.4564 14.1288ZM11.014 10.4909L12.0026 10.3403L12.0025 10.34L11.014 10.4909ZM11.0273 10.0692L10.1133 9.66347L10.1064 9.67911L10.1 9.69497L11.0273 10.0692ZM11.0273 10.0611L11.8706 10.5986L11.8718 10.5967L11.0273 10.0611ZM10.9873 10.1138L11.6992 10.8161L11.7159 10.7992L11.7318 10.7815L10.9873 10.1138ZM10.974 10.1273L11.648 10.8661L11.6674 10.8484L11.6858 10.8297L10.974 10.1273ZM10.9606 10.1395L10.2481 10.8411L10.9235 11.527L11.6346 10.8782L10.9606 10.1395ZM16.7681 18.5965L16.9218 17.6084L16.9208 17.6082L16.7681 18.5965ZM18.1959 18.4789L17.8483 17.5413L17.8426 17.5434L18.1959 18.4789ZM18.7559 18.16L19.3846 18.9377L19.4078 18.9189L19.4298 18.8988L18.7559 18.16ZM18.8226 18.0992L18.1667 17.3443L18.1576 17.3522L18.1486 17.3604L18.8226 18.0992ZM18.8319 18.0911L19.4877 18.846L19.5167 18.8208L19.5437 18.7935L18.8319 18.0911ZM18.8359 18.087L19.5477 18.7894L19.6612 18.6744L19.7327 18.5294L18.8359 18.087ZM18.8372 18.0843L18.1253 17.382L18.0119 17.497L17.9404 17.6419L18.8372 18.0843ZM17.4307 16.6437L17.751 17.5911L17.9758 17.515L18.1426 17.346L17.4307 16.6437ZM17.4334 16.641L18.1452 17.3433L18.1453 17.3432L17.4334 16.641ZM17.436 16.6383L16.7908 15.8743L16.756 15.9037L16.724 15.9361L17.436 16.6383ZM17.444 16.6316L18.0892 17.3956L18.124 17.3662L18.1559 17.3339L17.444 16.6316ZM17.4574 16.618L16.8325 15.8373L16.7867 15.874L16.7455 15.9158L17.4574 16.618ZM17.508 16.5775L16.9621 15.7397L16.9212 15.7663L16.8832 15.7967L17.508 16.5775ZM17.4987 16.5802L17.8415 17.5196L17.9065 17.4959L17.9676 17.4634L17.4987 16.5802ZM17.0721 16.5937L16.9172 17.5817L16.9195 17.582L17.0721 16.5937ZM9.96606 2.56633L10.5714 3.36233L11.357 2.76492L10.7699 1.97154L9.96606 2.56633ZM3.00404 7.01915L3.06075 8.01754L4.05937 7.96082L4.00242 6.96222L3.00404 7.01915ZM3.62932 5.61911L4.33906 6.32358L5.03452 5.6229L4.34285 4.91849L3.62932 5.61911ZM21.4756 23.9318L21.3833 22.936L20.3885 23.0283L20.4798 24.0232L21.4756 23.9318ZM24.0394 24.7547L24.7489 25.4594L25.4445 24.7591L24.7533 24.0545L24.0394 24.7547ZM11.6472 4.84477L12.4518 4.2509L11.85 3.43563L11.0428 4.04813L11.6472 4.84477ZM10.046 6.05967L9.4416 5.26302L8.65567 5.85934L9.24129 6.65327L10.046 6.05967ZM9.93273 8.32054L9.22167 7.6174L8.52882 8.31806L9.21919 9.02116L9.93273 8.32054ZM24.0341 18.6195L23.1524 18.1476L22.6862 19.0187L23.5516 19.4953L24.0341 18.6195ZM24.5234 21.4087L23.8133 20.7046L23.1185 21.4052L23.8098 22.1093L24.5234 21.4087ZM24.9873 16.8383L25.4695 15.9623L24.5831 15.4743L24.1056 16.3665L24.9873 16.8383ZM19.4465 17.4721L18.7326 18.1724L19.4426 18.8962L20.1565 18.1763L19.4465 17.4721ZM22.4409 15.4356L23.3221 15.9082L23.7892 15.0374L22.9239 14.56L22.4409 15.4356ZM18.036 16.0343L17.3265 15.3295L16.6308 16.0298L17.3221 16.7345L18.036 16.0343ZM19.5481 18.7876L20.1561 18.1754L18.7369 16.7661L18.129 17.3783L19.5481 18.7876ZM20.16 16.7701L18.7482 15.3323L17.3211 16.7335L18.733 18.1714L20.16 16.7701ZM17.3235 15.3298L16.7183 15.942L18.1405 17.3482L18.7457 16.736L17.3235 15.3298ZM16.7152 17.345L18.1244 18.7829L19.5527 17.383L18.1435 15.9451L16.7152 17.345ZM21.0023 18.0898L23.5501 19.4939L24.5154 17.7423L21.9676 16.3382L21.0023 18.0898ZM24.9144 19.09L25.8677 17.3088L24.1043 16.3651L23.1511 18.1462L24.9144 19.09ZM25.4685 15.9611L22.9221 14.5583L21.9571 16.3101L24.5035 17.7129L25.4685 15.9611ZM21.5583 14.9616L20.6037 16.7414L22.3662 17.6867L23.3208 15.9069L21.5583 14.9616ZM23.8119 20.7033L21.9187 22.6128L23.339 24.0209L25.2322 22.1114L23.8119 20.7033ZM21.915 24.0172L23.3242 25.4537L24.7519 24.0531L23.3427 22.6166L21.915 24.0172ZM24.748 25.4577L26.6411 23.5496L25.2213 22.1409L23.3282 24.0491L24.748 25.4577ZM26.6454 22.1453L25.2362 20.7074L23.8078 22.1073L25.217 23.5452L26.6454 22.1453ZM21.3797 22.9349C19.6915 23.0954 15.0054 22.9984 9.83593 17.7894L8.41634 19.1982C14.0778 24.9029 19.3908 25.133 21.569 24.9259L21.3797 22.9349ZM7.00571 20.6346C13.1609 26.8385 19.0994 27.1964 21.7552 26.9449L21.5667 24.9538C19.399 25.1591 14.0878 24.9332 8.42549 19.226L7.00571 20.6346ZM22.6567 25.8573L22.4701 23.8383L20.4786 24.0225L20.6652 26.0414L22.6567 25.8573ZM9.8361 17.7895C4.85133 12.7642 4.0944 8.62202 4.00114 6.96171L2.00428 7.07388C2.12433 9.21097 3.07924 13.8177 8.41617 19.198L9.8361 17.7895ZM2.94529 6.01945L0.948143 6.13432L1.06299 8.13102L3.06013 8.01615L2.94529 6.01945ZM0.00711715 7.18838C0.153758 9.81634 1.31278 14.8975 7.00577 20.6347L8.42543 19.2259C3.08479 13.8439 2.12401 9.2275 2.00401 7.07695L0.00711715 7.18838ZM11.6699 10.8457L12.0526 10.4593L10.6313 9.05217L10.2486 9.43866L11.6699 10.8457ZM12.0561 9.05576L10.6483 7.61924L9.21986 9.01913L10.6277 10.4557L12.0561 9.05576ZM9.22464 7.6144L8.84201 7.99954L10.2608 9.40912L10.6435 9.02397L9.22464 7.6144ZM8.83691 9.40394L10.2448 10.8418L11.6738 9.44259L10.266 8.00472L8.83691 9.40394ZM12.4504 4.24954L10.7706 1.9738L9.16151 3.16157L10.8413 5.4373L12.4504 4.24954ZM9.36118 1.77137L7.76 2.98761L8.96975 4.58025L10.5709 3.364L9.36118 1.77137ZM7.56049 4.37804L9.24033 6.65243L10.8491 5.4642L9.16926 3.18982L7.56049 4.37804ZM10.6492 6.85496L12.2503 5.64006L11.0414 4.04678L9.44026 5.26167L10.6492 6.85496ZM3.60229 1.36715L1.50915 3.47531L2.92841 4.88446L5.02155 2.7763L3.60229 1.36715ZM1.50492 4.88017L2.91546 6.31805L4.34318 4.91748L2.93264 3.4796L1.50492 4.88017ZM4.33917 6.32211L6.43098 4.21395L5.01127 2.80525L2.91946 4.91342L4.33917 6.32211ZM10.9686 8.72231C10.6158 8.36336 10.4382 8.18263 10.349 8.09223C10.3064 8.04905 10.2785 8.0209 10.2608 8.00357C10.256 7.99877 10.2487 7.99172 10.2405 7.98394C10.2357 7.97939 10.2154 7.96017 10.1888 7.93808C10.1769 7.92818 10.1446 7.90165 10.1002 7.87234C10.0914 7.86652 9.93493 7.75504 9.70386 7.71881C9.56282 7.69669 9.3151 7.69049 9.05758 7.83573C8.79351 7.98466 8.66779 8.20857 8.61281 8.35473C8.56272 8.4879 8.55384 8.59975 8.55125 8.63649C8.54953 8.66084 8.54907 8.68025 8.5489 8.69049C8.54881 8.69598 8.54878 8.70039 8.54877 8.70296C8.54877 8.70398 8.54876 8.70551 8.54876 8.70601C8.54876 8.70652 8.54876 8.70703 8.54876 8.70703H10.5488C10.5488 8.6988 10.5492 8.73561 10.5463 8.77733C10.5437 8.81399 10.5348 8.92577 10.4848 9.05888C10.4298 9.20499 10.3041 9.42885 10.0401 9.57776C9.78262 9.72297 9.53497 9.71676 9.39401 9.69466C9.16311 9.65845 9.00691 9.54709 8.99849 9.54153C8.95446 9.51247 8.92269 9.48633 8.91146 9.47701C8.88622 9.45606 8.86804 9.43871 8.86634 9.4371C8.86349 9.43441 8.86141 9.4324 8.86039 9.43141C8.85983 9.43087 8.85941 9.43046 8.85916 9.43021C8.85903 9.43009 8.85893 9.42999 8.85887 9.42993C8.85881 9.42987 8.85877 9.42984 8.85877 9.42983C8.85877 9.42983 8.8588 9.42986 8.85885 9.42991C8.85891 9.42997 8.85899 9.43005 8.8591 9.43016C8.85932 9.43038 8.85963 9.43069 8.86005 9.4311C8.86089 9.43194 8.86205 9.43309 8.86359 9.43463C8.8667 9.43773 8.8709 9.44195 8.87651 9.4476C8.88778 9.45894 8.90344 9.47477 8.92521 9.49684C9.01267 9.58549 9.18835 9.76424 9.54216 10.1242L10.9686 8.72231ZM9.54876 7.70703H9.5461V9.70703H9.54876V7.70703ZM8.74233 8.11209L8.73833 8.1175L10.3459 9.30738L10.3499 9.30197L8.74233 8.11209ZM8.82734 8.01306C8.7168 8.12604 8.61801 8.24987 8.53241 8.38259L10.2132 9.46662C10.226 9.44668 10.2407 9.42834 10.2569 9.41181L8.82734 8.01306ZM8.54044 8.37034C8.4304 8.53559 8.31441 8.74631 8.21787 9.00661L10.0931 9.70208C10.1298 9.60292 10.1712 9.52984 10.2051 9.47888L8.54044 8.37034ZM8.21154 9.02419C7.99266 9.64996 7.93824 10.3222 8.05332 10.9752L10.023 10.6281C9.96726 10.312 9.9937 9.98666 10.0994 9.68451L8.21154 9.02419ZM8.04962 10.9528C8.27443 12.4237 9.23593 14.1535 11.3358 16.2708L12.7559 14.8625C10.7868 12.8771 10.1592 11.5175 10.0267 10.6506L8.04962 10.9528ZM14.1661 13.4242C12.3267 11.5715 12.0405 10.5893 12.0026 10.3403L10.0254 10.6415C10.1554 11.4952 10.7758 12.8481 12.7467 14.8333L14.1661 13.4242ZM12.0025 10.34C11.9859 10.2309 12.0184 10.2854 11.9546 10.4435L10.1 9.69497C10.0122 9.91253 9.96206 10.2265 10.0254 10.6417L12.0025 10.34ZM11.9413 10.475C11.9457 10.465 11.9549 10.4441 11.9647 10.4187C11.9692 10.4071 11.979 10.3813 11.9891 10.3482C11.9941 10.3317 12.0026 10.3027 12.0105 10.266C12.0163 10.2396 12.0333 10.1588 12.0333 10.0537C12.0333 10.0012 12.0295 9.89988 11.9946 9.77812C11.9606 9.65926 11.8738 9.4427 11.6523 9.26803C11.1301 8.85643 10.5947 9.15253 10.5422 9.18207C10.4187 9.25162 10.3403 9.33152 10.3206 9.35149C10.2888 9.38371 10.2657 9.41152 10.2536 9.42645C10.2134 9.47627 10.1855 9.52137 10.1828 9.52554L11.8718 10.5967C11.8689 10.6012 11.8633 10.61 11.8557 10.6211C11.8499 10.6296 11.8335 10.6534 11.8099 10.6826C11.7984 10.6969 11.7757 10.7242 11.7443 10.7561C11.725 10.7757 11.6469 10.8553 11.5236 10.9247C11.4714 10.9541 10.9361 11.2502 10.4141 10.8387C10.1926 10.6641 10.1059 10.4476 10.0719 10.3288C10.0371 10.2072 10.0333 10.106 10.0333 10.0537C10.0333 9.94896 10.0502 9.86861 10.0559 9.84272C10.0637 9.80662 10.0719 9.77833 10.0767 9.76266C10.0864 9.7312 10.0954 9.70749 10.0989 9.69845C10.1067 9.67829 10.1129 9.66443 10.1133 9.66347L11.9413 10.475ZM10.184 9.52365C10.2014 9.49636 10.2211 9.47043 10.2428 9.44617L11.7318 10.7815C11.783 10.7244 11.8294 10.6632 11.8706 10.5986L10.184 9.52365ZM10.2754 9.41151L10.2621 9.42502L11.6858 10.8297L11.6992 10.8161L10.2754 9.41151ZM10.3 9.3886L10.2866 9.40077L11.6346 10.8782L11.648 10.8661L10.3 9.3886ZM11.6732 9.43787L10.9679 8.72164L9.54282 10.1249L10.2481 10.8411L11.6732 9.43787ZM11.3361 16.2711C13.436 18.3871 15.1541 19.359 16.6154 19.5848L16.9208 17.6082C16.073 17.4772 14.7273 16.849 12.7557 14.8623L11.3361 16.2711ZM16.6143 19.5846C17.3707 19.7023 18.0217 19.6137 18.5493 19.4144L17.8426 17.5434C17.6476 17.6171 17.3467 17.6745 16.9218 17.6084L16.6143 19.5846ZM18.5436 19.4165C18.8481 19.3036 19.132 19.1418 19.3846 18.9377L18.1272 17.3823C18.0428 17.4505 17.9486 17.5041 17.8483 17.5413L18.5436 19.4165ZM19.4298 18.8988L19.4965 18.8379L18.1486 17.3604L18.0819 17.4212L19.4298 18.8988ZM19.4784 18.8541L19.4877 18.846L18.176 17.3362L18.1667 17.3443L19.4784 18.8541ZM19.5437 18.7935L19.5477 18.7894L18.1241 17.3846L18.1201 17.3887L19.5437 18.7935ZM19.7327 18.5294L19.734 18.5267L17.9404 17.6419L17.9391 17.6446L19.7327 18.5294ZM18.8372 18.0843C19.5491 18.7866 19.6944 18.5993 19.7916 18.3831C19.8084 18.3228 19.834 18.1644 19.8371 18.0664C19.8344 17.918 19.7989 17.8056 19.7825 17.7581C19.7478 17.6574 19.7044 17.5859 19.6931 17.5672C19.6622 17.516 19.6333 17.479 19.6274 17.4714C19.6084 17.447 19.5924 17.4287 19.5893 17.4252C19.5789 17.4133 19.5702 17.404 19.568 17.4016C19.5613 17.3945 19.5544 17.3872 19.5481 17.3807C19.5345 17.3665 19.5105 17.3417 19.4662 17.2962C19.377 17.2046 19.2 17.0234 18.8472 16.6637L17.4194 18.0643C17.7719 18.4236 17.9468 18.6025 18.0332 18.6914C18.0768 18.7361 18.0965 18.7565 18.1047 18.765C18.1094 18.7699 18.1078 18.7683 18.1038 18.7641C18.103 18.7631 18.0949 18.7546 18.0848 18.743C18.0819 18.7397 18.0659 18.7215 18.047 18.6971C18.0412 18.6896 18.0122 18.6526 17.9813 18.6014C17.97 18.5827 17.9267 18.5112 17.8919 18.4105C17.8755 18.363 17.84 18.2506 17.8374 18.1022C17.8404 18.0042 17.8661 17.8458 17.8829 17.7856C17.98 17.5693 18.1253 17.382 18.8372 18.0843ZM18.8465 16.6631C18.4936 16.304 18.3201 16.1261 18.2355 16.0387C18.1926 15.9944 18.1754 15.9763 18.1701 15.9707C18.1663 15.9666 18.1725 15.973 18.1819 15.9838C18.1841 15.9862 18.2016 16.0059 18.2222 16.0326C18.2271 16.0389 18.2627 16.0843 18.2989 16.1476C18.3084 16.1642 18.3712 16.2704 18.4056 16.4213C18.4217 16.4915 18.4598 16.6861 18.3909 16.9229C18.3528 17.0539 18.2809 17.2001 18.1571 17.331C18.095 17.3912 17.9937 17.4701 17.9586 17.4931C17.8576 17.548 17.751 17.5911 17.4307 16.6437C17.1104 15.6964 17.0038 15.7394 16.9028 15.7944C16.8676 15.8173 16.7664 15.8963 16.7043 15.9565C16.5805 16.0873 16.5085 16.2336 16.4705 16.3645C16.4016 16.6013 16.4397 16.7959 16.4557 16.8661C16.4902 17.0171 16.553 17.1233 16.5625 17.1399C16.5987 17.2033 16.6344 17.2487 16.6394 17.2552C16.6604 17.2823 16.6785 17.3027 16.6818 17.3066C16.6939 17.3202 16.7053 17.3324 16.7121 17.3396C16.7282 17.3568 16.7541 17.3839 16.7985 17.4298C16.8886 17.5228 17.0664 17.7051 17.4201 18.065L18.8465 16.6631ZM18.1426 17.346L18.1452 17.3433L16.7215 15.9387L16.7188 15.9414L18.1426 17.346ZM18.1453 17.3432L18.148 17.3405L16.724 15.9361L16.7214 15.9388L18.1453 17.3432ZM18.0812 17.4023L18.0892 17.3956L16.7988 15.8676L16.7908 15.8743L18.0812 17.4023ZM18.1559 17.3339L18.1692 17.3203L16.7455 15.9158L16.7321 15.9293L18.1559 17.3339ZM18.0822 17.3988L18.1328 17.3583L16.8832 15.7967L16.8325 15.8373L18.0822 17.3988ZM18.054 17.4153C18.0559 17.414 18.089 17.3929 18.1257 17.3646C18.1363 17.3564 18.16 17.3378 18.1883 17.3121C18.1892 17.3112 18.2966 17.2198 18.3822 17.0709C18.4067 17.0284 18.5846 16.7306 18.4864 16.3325C18.3519 15.7875 17.8849 15.6249 17.705 15.5902C17.533 15.557 17.3958 15.5785 17.3592 15.5843C17.3031 15.5932 17.2595 15.605 17.2369 15.6116C17.1617 15.6333 17.104 15.6604 17.1024 15.6611C17.0855 15.6687 17.072 15.6753 17.0651 15.6788C17.0504 15.6861 17.0375 15.6929 17.0297 15.697L17.9676 17.4634C17.9692 17.4626 17.9637 17.4656 17.9544 17.4702C17.9502 17.4722 17.939 17.4778 17.9239 17.4846C17.9163 17.488 17.9031 17.4938 17.8864 17.5005C17.8736 17.5057 17.839 17.5194 17.7932 17.5326C17.7707 17.5391 17.7273 17.551 17.6713 17.5598C17.6349 17.5655 17.4978 17.5871 17.3258 17.5539C17.146 17.5192 16.6791 17.3566 16.5446 16.8117C16.4464 16.4136 16.6243 16.1159 16.6487 16.0735C16.7342 15.9248 16.8413 15.8336 16.842 15.833C16.8699 15.8076 16.8932 15.7894 16.9032 15.7817C16.9249 15.7649 16.9423 15.753 16.9471 15.7497C16.9543 15.7448 16.9597 15.7412 16.9621 15.7397L18.054 17.4153ZM17.1559 15.6408C17.1647 15.6376 17.1759 15.6337 17.1885 15.6299C17.2007 15.6261 17.2124 15.6229 17.2235 15.6203C17.2458 15.615 17.2624 15.6126 17.2724 15.6116C17.2929 15.6096 17.2793 15.6139 17.2246 15.6054L16.9195 17.582C17.3497 17.6484 17.6507 17.5892 17.8415 17.5196L17.1559 15.6408ZM17.2269 15.6058C16.9796 15.567 16.0051 15.2779 14.1663 13.4245L12.7465 14.8331C14.7154 16.8176 16.0606 17.4474 16.9172 17.5817L17.2269 15.6058ZM10.7699 1.97154C9.07257 -0.322473 5.6875 -0.734332 3.60207 1.36737L5.02177 2.77608C6.18137 1.60743 8.1398 1.77937 9.16218 3.16113L10.7699 1.97154ZM6.43101 4.21391C6.68482 3.95809 7.22866 3.92891 7.56058 4.37816L9.16917 3.1897C8.14921 1.80918 6.17595 1.63134 5.01123 2.80529L6.43101 4.21391ZM8.97018 4.57993L10.5714 3.36233L9.36075 1.77034L7.75957 2.98794L8.97018 4.57993ZM4.00242 6.96222C3.99618 6.85282 4.03916 6.62572 4.33906 6.32358L2.91958 4.91465C2.33955 5.49902 1.95857 6.25032 2.00566 7.07608L4.00242 6.96222ZM4.34285 4.91849L2.93098 3.48061L1.50392 4.88186L2.91579 6.31974L4.34285 4.91849ZM1.50754 3.47695C0.655182 4.3361 -0.081197 5.61918 0.00714391 7.18886L2.00398 7.07648C1.95634 6.22988 2.34785 5.46966 2.92736 4.88553L1.50754 3.47695ZM1.06227 8.13106L3.06075 8.01754L2.94733 6.02076L0.948854 6.13428L1.06227 8.13106ZM21.917 22.6146C21.6681 22.8669 21.4806 22.927 21.3833 22.936L21.568 24.9275C22.2573 24.8635 22.8591 24.5074 23.3407 24.0192L21.917 22.6146ZM20.4798 24.0232L20.6652 26.0408L22.6568 25.8579L22.4715 23.8403L20.4798 24.0232ZM21.7557 26.9449C23.0312 26.8235 24.0379 26.1753 24.7489 25.4594L23.3299 24.0501C22.8463 24.5369 22.2505 24.8888 21.5662 24.9539L21.7557 26.9449ZM24.7533 24.0545L23.3427 22.6166L21.915 24.0172L23.3255 25.455L24.7533 24.0545ZM12.0517 10.4602C13.7314 8.76793 13.8337 6.12311 12.4518 4.2509L10.8427 5.43864C11.6712 6.56111 11.5789 8.09747 10.6322 9.05123L12.0517 10.4602ZM11.0428 4.04813L9.4416 5.26302L10.6505 6.85631L12.2517 5.64141L11.0428 4.04813ZM9.24129 6.65327C9.49891 7.00253 9.43116 7.40555 9.22167 7.6174L10.6438 9.02367C11.5755 8.08144 11.6677 6.5736 10.8508 5.46606L9.24129 6.65327ZM9.21919 9.02116L10.6284 10.4563L12.0555 9.05509L10.6463 7.61992L9.21919 9.02116ZM23.5516 19.4953C24.0833 19.7882 24.0957 20.4198 23.8133 20.7046L25.2334 22.1129C26.4896 20.8462 26.1633 18.6507 24.5166 17.7436L23.5516 19.4953ZM23.8098 22.1093L25.2204 23.5459L26.6474 22.1446L25.2369 20.7081L23.8098 22.1093ZM26.6439 23.5494C28.9314 21.2429 28.192 17.4609 25.4695 15.9623L24.5051 17.7144C26.1476 18.6185 26.5094 20.8448 25.2239 22.1411L26.6439 23.5494ZM24.1056 16.3665L23.1524 18.1476L24.9157 19.0913L25.869 17.3102L24.1056 16.3665ZM20.1565 18.1763C20.3421 17.9892 20.6767 17.9117 21.005 18.0919L21.9676 16.3388C20.888 15.7461 19.5748 15.9226 18.7365 16.768L20.1565 18.1763ZM22.3676 17.688L23.3221 15.9082L21.5596 14.9629L20.6051 16.7427L22.3676 17.688ZM22.9239 14.56C21.1037 13.5558 18.8219 13.8241 17.3265 15.3295L18.7454 16.739C19.5858 15.893 20.8876 15.7207 21.9578 16.3112L22.9239 14.56ZM17.3221 16.7345L18.7326 18.1724L20.1604 16.7718L18.7498 15.334L17.3221 16.7345Z" fill="white" mask="url(#path-1-outside-1_127_117)"/>
</svg>
